<?xml version="1.0" standalone="no"?>
<!DOCTYPE svg PUBLIC "-//W3C//DTD SVG 20010904//EN"
 "http://www.w3.org/TR/2001/REC-SVG-20010904/DTD/svg10.dtd">
<svg version="1.0" xmlns="http://www.w3.org/2000/svg"
 width="512.000000pt" height="512.000000pt" viewBox="0 0 512.000000 512.000000"
 preserveAspectRatio="xMidYMid meet">
<metadata>
Created by potrace 1.11, written by Peter Selinger 2001-2013
</metadata>
<g transform="translate(0.000000,512.000000) scale(0.100000,-0.100000)"
fill="#000000" stroke="none">
<path d="M2405 4360 c-544 -62 -1046 -380 -1317 -835 -173 -291 -257 -589
-258 -915 0 -286 58 -533 184 -785 l64 -127 -154 -461 c-85 -254 -153 -465
-152 -468 2 -3 218 63 481 147 l478 154 95 -46 c553 -265 1214 -218 1729 124
119 79 153 106 263 215 471 464 642 1162 436 1787 -45 137 -146 341 -227 459
-266 388 -684 653 -1162 736 -110 19 -352 27 -460 15z m459 -311 c354 -72 681
-277 892 -559 121 -162 226 -398 271 -610 25 -120 25 -420 0 -540 -45 -213
-151 -451 -272 -611 -79 -105 -237 -258 -335 -324 -171 -115 -387 -204 -585
-242 -123 -23 -376 -23 -505 1 -164 29 -368 108 -502 192 -21 13 -43 24 -50
24 -7 0 -133 -39 -281 -86 -148 -47 -272 -83 -274 -80 -3 3 35 125 85 270 l91
265 -45 68 c-96 144 -170 325 -210 513 -27 123 -27 429 0 555 39 187 124 388
234 554 66 101 218 261 316 335 209 157 482 267 730 296 116 13 322 3 440 -21z"/>
<path d="M2229 3477 c-138 -58 -225 -166 -248 -304 -49 -305 244 -540 537
-431 71 27 169 118 208 195 27 54 29 66 29 168 0 98 -3 116 -27 167 -37 80
-107 152 -186 190 -57 29 -77 33 -161 36 -83 2 -104 -1 -152 -21z"/>
<path d="M3118 2969 c-16 -9 -18 -30 -18 -199 l0 -190 -188 0 c-133 0 -192 -4
-200 -12 -14 -14 -17 -215 -4 -235 6 -9 61 -13 197 -15 l190 -3 3 -190 c2
-136 6 -191 15 -197 20 -13 221 -10 235 4 8 8 12 67 12 200 l0 188 190 0 c226
0 214 -9 208 141 -2 75 -7 102 -18 109 -8 5 -97 10 -197 10 l-183 0 0 190 c0
177 -1 190 -19 200 -25 13 -201 13 -223 -1z"/>
<path d="M1937 2770 c-163 -28 -259 -184 -288 -471 -16 -166 3 -243 79 -311
71 -64 62 -63 647 -63 510 0 532 1 570 20 l40 20 3 121 3 122 -149 3 c-164 4
-186 11 -222 72 -17 28 -20 51 -20 166 0 117 3 138 20 166 33 53 71 65 211 65
l122 0 -22 24 c-27 29 -100 61 -157 70 -37 5 -48 2 -95 -30 -209 -144 -390
-150 -590 -19 -46 30 -88 54 -94 54 -5 -1 -31 -5 -58 -9z"/>
</g>
</svg>
